<svg xmlns="http://www.w3.org/2000/svg" width="135" height="32" viewBox="0 0 135 32">
    <g fill="none" fill-rule="evenodd">
        <path fill="#046E89" d="M116.93 17.357a9.633 9.633 0 0 0-3.497-3.504 9.944 9.944 0 0 0-2.331-.98 9.535 9.535 0 0 0-2.587-.351c-.9 0-1.764.117-2.592.35a9.98 9.98 0 0 0-2.325.981 9.486 9.486 0 0 0-1.968 1.523 9.87 9.87 0 0 0-1.522 1.98 9.673 9.673 0 0 0-1.325 4.923c0 .901.114 1.765.343 2.594a9.5 9.5 0 0 0 .982 2.318 9.865 9.865 0 0 0 3.49 3.484A9.628 9.628 0 0 0 108.515 32c.892 0 1.754-.115 2.587-.344a9.596 9.596 0 0 0 2.33-.98 9.925 9.925 0 0 0 1.975-1.523 9.575 9.575 0 0 0 1.523-1.962c.42-.717.747-1.49.98-2.318.234-.829.35-1.693.35-2.593 0-.9-.116-1.764-.35-2.592a10.105 10.105 0 0 0-.98-2.331zm-5.409 7.871a4.029 4.029 0 0 1-1.323.885 4.304 4.304 0 0 1-1.682.322c-.61 0-1.169-.107-1.676-.322a4.045 4.045 0 0 1-1.318-.885 4.017 4.017 0 0 1-.865-1.323 4.285 4.285 0 0 1-.31-1.634c0-.576.103-1.118.31-1.628.205-.51.494-.954.865-1.334.371-.379.81-.678 1.318-.896a4.212 4.212 0 0 1 1.676-.326c.61 0 1.17.11 1.682.326.511.218.952.517 1.323.896.371.38.66.825.866 1.334.206.51.309 1.052.309 1.628 0 .584-.103 1.128-.31 1.634a4.023 4.023 0 0 1-.865 1.323zm-26.268-7.627a5.415 5.415 0 0 0-1.757 1.048c-.5.45-.897.984-1.188 1.6a4.67 4.67 0 0 0-.438 2.025c0 .69.128 1.328.382 1.914a4.71 4.71 0 0 0 1.056 1.527c.45.432.975.782 1.577 1.048.602.267 1.25.427 1.944.479.204.017.408.032.612.046.204.012.412.019.625.019h1.012v-3.399c0-1.44 1.238-2.61 2.766-2.61 1.527 0 2.765 1.17 2.765 2.61V29.654c0 1.25-1.038 2.26-2.39 2.337-.033 0-.063.009-.096.009h-5.001c-.973 0-1.913-.112-2.82-.334a11.176 11.176 0 0 1-2.536-.95 10.248 10.248 0 0 1-2.14-1.495 9.788 9.788 0 0 1-1.66-1.96 9.156 9.156 0 0 1-1.07-2.333 9.15 9.15 0 0 1-.374-2.64c0-.918.127-1.797.382-2.636a9.446 9.446 0 0 1 2.73-4.313 10.815 10.815 0 0 1 2.146-1.507c.783-.42 1.625-.742 2.528-.97.903-.226 1.84-.34 2.813-.34h5.002c1.373 0 2.486 1.05 2.486 2.345 0 1.296-1.113 2.346-2.486 2.346l-3.045.014H87.4a6.13 6.13 0 0 0-2.146.374zM65.39 15.125c0-1.438 1.246-2.603 2.783-2.603s2.783 1.165 2.783 2.603v14.272c0 1.437-1.246 2.603-2.783 2.603s-2.783-1.166-2.783-2.603V15.125zm-5.894.216a9.415 9.415 0 0 1 1.66 1.966 9.587 9.587 0 0 1 1.07 2.346 9.02 9.02 0 0 1 .382 2.634c0 .926-.125 1.806-.375 2.64a9.171 9.171 0 0 1-1.07 2.333 9.821 9.821 0 0 1-1.66 1.96 10.237 10.237 0 0 1-2.14 1.493 11.15 11.15 0 0 1-2.535.95c-.907.223-1.847.335-2.82.335h-4.415c-.12.005-.685.003-.877-.028-1.235-.138-2.195-1.117-2.195-2.318 0-.04.01-.077.013-.117-.002-.04-.013-.077-.013-.117v-14.3c0-.043.011-.082.013-.125-.002-.042-.013-.081-.013-.124 0-1.296 1.113-2.345 2.486-2.345h.13c.05-.003.249-.003.299 0h4.572c.973 0 1.91.114 2.813.34.903.228 1.746.55 2.529.97.782.42 1.497.922 2.146 1.507zm-3.675 10.373a4.7 4.7 0 0 0 1.056-1.527 4.74 4.74 0 0 0 .382-1.913c0-.734-.146-1.41-.437-2.025a5.008 5.008 0 0 0-1.188-1.599c-.5-.45-1.086-.8-1.757-1.048a6.134 6.134 0 0 0-2.146-.374h-1.68v10.078h1.013c.213 0 .42-.007.625-.02.203-.013.407-.028.61-.046a5.857 5.857 0 0 0 1.946-.478 5.399 5.399 0 0 0 1.576-1.048zm-26.35-13.192h8.342c1.4 0 2.534 1.056 2.534 2.36v.469c0 1.303-1.135 2.36-2.534 2.36h-5.808v1.956h5.808c1.4 0 2.534 1.056 2.534 2.36v.469c0 1.303-1.135 2.36-2.534 2.36h-5.808v1.955h5.808c1.4 0 2.534 1.057 2.534 2.36v.47c0 1.302-1.135 2.359-2.534 2.359h-8.846c-1.4 0-2.533-1.057-2.533-2.36V14.881c0-1.303 1.134-2.36 2.533-2.36h.504zm-10.417.137c.248.086.537.23.854.47 1.018.772.961 1.983.96 2.025v14.242c0 1.438-1.18 2.604-2.634 2.604s-2.633-1.166-2.633-2.604v-7.973l-3.3 3.263c-.899.89-2.288 1-3.31.333a2.63 2.63 0 0 1-.425-.34l-3.3-3.263v7.974c0 1.438-1.179 2.603-2.632 2.603C1.18 31.993 0 30.828 0 29.39V15.148c-.002-.042-.059-1.254.96-2.026.317-.24.607-.384.856-.47.213-.074.39-.103.53-.114.512-.059.936.053 1.297.189.173.073.32.155.458.244.216.142.337.263.337.263l6 5.932 5.992-5.925s.12-.121.355-.275a2.8 2.8 0 0 1 .444-.235c.357-.134.78-.246 1.292-.187.14.012.317.04.533.115z"/>
        <path fill="#24E2CF" d="M121.05 5.565a2.786 2.786 0 0 0-2.79 2.783 2.786 2.786 0 0 0 2.79 2.782h2.776V5.565h-2.775zM123.826 11.13v2.766c0 1.546 1.246 2.8 2.783 2.8a2.791 2.791 0 0 0 2.782-2.8V11.13h-5.565z"/>
        <path fill="#1AB1E5" d="M132.167 5.56H129.407V2.786A2.787 2.787 0 0 0 126.618 0a2.787 2.787 0 0 0-2.789 2.785l-.003 2.776v5.57h8.341a2.787 2.787 0 0 0 2.789-2.785 2.787 2.787 0 0 0-2.789-2.785"/>
    </g>
</svg>
